<svg width="71" height="96" viewBox="0 0 71 96" fill="none" xmlns="http://www.w3.org/2000/svg">
<mask id="mask0_119_426" style="mask-type:luminance" maskUnits="userSpaceOnUse" x="0" y="0" width="71" height="96">
<path d="M70.3448 0H0V96H70.3448V0Z" fill="white"/>
</mask>
<g mask="url(#mask0_119_426)">
<path d="M8.6069 85.7376C8.6069 84.5789 7.61379 83.7513 6.45518 83.7513H3.14483V87.7237H6.45518C7.77931 87.7237 8.6069 86.8962 8.6069 85.7376ZM0 80.9375H6.95172C10.0965 80.9375 11.9172 83.0893 11.9172 85.7376C11.9172 88.2203 10.0965 90.5375 6.95172 90.5375H3.14483V95.8341H0V80.9375Z" fill="#003666"/>
<path d="M21.3511 90.3717C21.3511 88.7166 20.358 87.2269 18.5373 87.2269C16.7166 87.2269 15.8891 88.7166 15.8891 90.3717C15.8891 92.0269 16.8821 93.5166 18.5373 93.5166C20.1925 93.5166 21.3511 92.0269 21.3511 90.3717ZM13.0752 90.3717C13.0752 87.3924 15.227 84.7441 18.7029 84.7441C22.1787 84.7441 24.3305 87.2269 24.3305 90.3717C24.3305 93.351 22.1787 95.9993 18.7029 95.9993C15.227 95.9993 13.0752 93.351 13.0752 90.3717Z" fill="#003666"/>
<path d="M26.1514 90.3717C26.1514 87.0614 28.4686 84.7441 31.7791 84.7441C33.9307 84.7441 35.2549 85.7373 36.0825 86.7304L34.2617 88.3856C33.7652 87.5579 32.9376 87.2269 31.9446 87.2269C30.2893 87.2269 28.9652 88.3856 28.9652 90.3717C28.9652 92.358 30.1238 93.5166 31.9446 93.5166C32.9376 93.5166 33.7652 93.02 34.2617 92.358L36.0825 94.0131C35.4204 95.0063 34.0962 95.9993 31.7791 95.9993C28.4686 95.9993 26.1514 93.6821 26.1514 90.3717Z" fill="#003666"/>
<path d="M40.7176 95.6693V87.3935H37.7383V85.0762H46.5107V87.3935H43.5314V95.6693H40.7176Z" fill="#003666"/>
<path d="M53.131 87.0614C51.3103 87.0614 50.6482 88.3856 50.4827 89.3787H55.7793C55.7793 88.3856 54.9517 87.0614 53.131 87.0614ZM47.6689 90.3717C47.6689 87.2269 49.9861 84.7441 53.131 84.7441C56.2758 84.7441 58.4275 87.0614 58.4275 90.7028V91.3649H50.4827C50.6482 92.689 51.8069 93.8476 53.6275 93.8476C54.4552 93.8476 55.7793 93.5166 56.4413 92.8545L57.6 94.6752C56.6068 95.6683 54.7862 96.1648 53.131 96.1648C50.1517 95.9993 47.6689 93.8476 47.6689 90.3717Z" fill="#003666"/>
<path d="M67.2002 95.6693L64.7174 92.0279L62.2346 95.6693H59.0898L62.8968 90.2072L59.4209 85.0762H62.5658L64.7174 88.3866L66.8692 85.0762H70.014L66.5381 90.2072L70.345 95.6693H67.2002Z" fill="#003666"/>
<path d="M60.9107 32.7724V9.10345H37.4072L46.5107 0H70.0142V23.5035L60.9107 32.7724Z" fill="#003666"/>
<path d="M70.0142 70.0131H46.5107L37.4072 60.9096H60.9107V37.4062L70.0142 46.5097V70.0131Z" fill="#003666"/>
<path d="M0 23.5035V0H23.5035L32.7724 9.10345H9.26897V32.7724L0 23.5035Z" fill="#003666"/>
<path d="M0 46.5097L9.26897 37.4062V60.9096H32.6069L23.5035 70.0131H0V46.5097Z" fill="#003666"/>
</g>
</svg>
