<svg width="392" height="96" viewBox="0 0 392 96" fill="none" xmlns="http://www.w3.org/2000/svg">
<path d="M202.228 95.9051H183.366V18.6671H154.605V1.87613H230.93V18.6671H202.17V95.9051H202.228ZM125.268 64.9744L103.637 70.807V95.9051H84.746V1.87649H120.312C139.552 2.46544 152.729 13.6593 152.729 33.7496C152.729 50.3047 142.059 59.4366 126.084 64.6799L125.268 64.9744ZM118.854 18.6671H103.695V53.4271L118.738 49.362C127.133 47.4769 134.014 43.5293 134.014 33.7496C134.014 23.4984 127.075 18.7261 118.854 18.6671ZM306.629 95.9051H239.688V1.87649H305.406V18.6675H258.565V44.4131L288.685 36.224L292.996 52.4257L258.565 61.7341V79.1141H306.629V95.9051ZM342.363 53.9527L334.859 56.0147V95.488H316.013V1.45942H334.859V38.6348L344.747 35.9838L367.897 1.45978H389.828L359.056 45.8815L391.921 95.488H369.235L342.363 53.9527ZM73.4848 34.2645V95.9051H54.6242V61.1696L18.9407 70.8246V95.9051H0.0800781V34.2645C0.0800781 13.4231 17.0195 0 36.7533 0C56.9528 0 73.4848 13.8355 73.4848 34.2645ZM54.6242 43.8019V34.2645C54.6242 24.4325 46.5328 16.1902 36.8116 16.1902C27.0903 16.1902 18.9989 24.3736 18.9989 34.2055V53.4573L54.6242 43.8019Z" fill="#003666"/>
</svg>
